<svg id="Layer_1" data-name="Layer 1" xmlns="http://www.w3.org/2000/svg" xmlns:xlink="http://www.w3.org/1999/xlink" viewBox="0 0 521.5 726.94"><defs><style>.cls-1{fill:url(#linear-gradient);}.cls-2{fill:url(#linear-gradient-2);}</style><linearGradient id="linear-gradient" y1="363.79" x2="240.22" y2="363.79" gradientUnits="userSpaceOnUse"><stop offset="0" stop-color="#1eafe8"/><stop offset="1" stop-color="#0347ff"/></linearGradient><linearGradient id="linear-gradient-2" x1="288.15" y1="362.86" x2="521.5" y2="362.86" xlink:href="#linear-gradient"/></defs><title>Icon Vector</title><path class="cls-1" d="M240.22.64S27.18,74.93,1.74,325.91c0,0-25.88,180.37,122.06,322.8V528.36S81.87,461.81,83.77,406h44.35L162,450.32V686.9s35.46,32.23,78.22,40V442.27L193.4,364.11l46.82-75.88ZM159,255.36s-1.46,50.82-28.36,70.55l-46.82-2.47S91.26,221.55,159,165.72Z"/><path class="cls-2" d="M288.15,0V725.71s252-94.86,232.25-397.35h-114v73.92h35.73s-2.47,107.89-78.24,169.42V160.79s42.28,17.18,61.61,80.7h73.93S442.73,55.34,288.15,0Z"/></svg>